<svg version="1.2" baseProfile="tiny" xmlns="http://www.w3.org/2000/svg" xmlns:xlink="http://www.w3.org/1999/xlink" x="0px" y="0px" xml:space="preserve" viewBox="97.12 136.4 300.12 358.8">
<g id="Bildmarke">
	<path fill="#9ECB09" d="M311,427.1c9.7-10.4,20.7-22.3,35.5-38.4c50.5-54.6,59.8-111.8,43.1-159c-15.8-44.5-75.1-93.3-141.7-93.3   c-68.4,0.5-128.2,46.6-143.4,93.4c-10.2,31.5-20,89.9,45.4,159.9l97.8,105.5l21-22.6c0,0-68.8-74.5-93.8-101.5   c-20.2-24.9-55.2-69.3-40.7-127.7c5.5-22.3,45.3-76.4,113.8-76.2c68.4,0.2,105.7,56.7,111.9,73.4c14.3,38.7,6.3,82.1-38.6,130.2   c-16,17.1-7.6,8.3-23.9,25.7c0,0-66.2-71.8-83.2-90.4c-12.6-13.8-14.6-36-0.8-49.6c13.6-13.3,34.6-17.3,51.5-1.1l19.9,21.7   c10.3,10.7,14.6,10.6,24.1,0.8c7.4-7.6,24.5-26.5,28.9-31.4c-7.6-7.4-13.7-13.4-21.9-21.6c-4.9,5.2-16,17.3-18.7,20.1   c-10.7-11.5-24.2-30.5-56.5-30.8c-19.6,0-37,8.3-49,20.2c-16.4,18-19.3,33.3-19.6,41.7c-0.6,17.4,1.3,31.7,22.9,55.3   c35.3,38.2,78.5,84.7,89,95.9C294.4,438.3,300.8,438.1,311,427.1z"/>
</g></svg>