<?xml version="1.0" encoding="UTF-8"?>
<!DOCTYPE svg PUBLIC "-//W3C//DTD SVG 1.1//EN" "http://www.w3.org/Graphics/SVG/1.1/DTD/svg11.dtd">
<svg xmlns="http://www.w3.org/2000/svg" version="1.1" width="4110px" height="2911px" style="shape-rendering:geometricPrecision; text-rendering:geometricPrecision; image-rendering:optimizeQuality; fill-rule:evenodd; clip-rule:evenodd" xmlns:xlink="http://www.w3.org/1999/xlink">
<g><path style="opacity:0.985" fill="#665953" d="M 2375.5,-0.5 C 2404.5,-0.5 2433.5,-0.5 2462.5,-0.5C 2440.74,24.7609 2418.41,49.5943 2395.5,74C 2372.17,74.5 2348.84,74.6666 2325.5,74.5C 2325.34,72.1432 2325.5,69.8098 2326,67.5C 2342.72,44.9551 2359.22,22.2885 2375.5,-0.5 Z"/></g>
<g><path style="opacity:0.992" fill="#665953" d="M 1072.5,96.5 C 1137.83,96.3333 1203.17,96.5 1268.5,97C 1330.44,99.3734 1376.94,127.207 1408,180.5C 1425.02,214.299 1430.68,249.966 1425,287.5C 1417.04,341.725 1390.21,383.559 1344.5,413C 1325.84,423.554 1305.84,429.887 1284.5,432C 1246.5,432.5 1208.5,432.667 1170.5,432.5C 1170.5,485.167 1170.5,537.833 1170.5,590.5C 1137.83,590.5 1105.17,590.5 1072.5,590.5C 1072.5,425.833 1072.5,261.167 1072.5,96.5 Z M 1170.5,183.5 C 1202.5,183.333 1234.5,183.5 1266.5,184C 1295.84,191.004 1315.34,208.837 1325,237.5C 1334.48,278.33 1322.31,310.83 1288.5,335C 1280.42,339.708 1271.75,342.708 1262.5,344C 1231.84,344.5 1201.17,344.667 1170.5,344.5C 1170.5,290.833 1170.5,237.167 1170.5,183.5 Z"/></g>
<g><path style="opacity:0.989" fill="#665953" d="M 1518.5,97.5 C 1551.17,97.5 1583.83,97.5 1616.5,97.5C 1616.5,261.833 1616.5,426.167 1616.5,590.5C 1583.83,590.5 1551.17,590.5 1518.5,590.5C 1518.5,426.167 1518.5,261.833 1518.5,97.5 Z"/></g>
<g><path style="opacity:0.993" fill="#665953" d="M 2116.5,543.5 C 2115.67,549.999 2115,556.666 2114.5,563.5C 2115,570.334 2115.67,577.001 2116.5,583.5C 2116.5,585.833 2116.5,588.167 2116.5,590.5C 2086.83,590.833 2057.16,590.5 2027.5,589.5C 1965.67,489.833 1903.83,390.167 1842,290.5C 1840.67,283.167 1839.33,275.833 1838,268.5C 1837.5,375.833 1837.33,483.166 1837.5,590.5C 1804.83,590.5 1772.17,590.5 1739.5,590.5C 1739.5,426.167 1739.5,261.833 1739.5,97.5C 1769.74,97.1712 1799.91,97.5045 1830,98.5C 1891.08,196.335 1952.42,294.002 2014,391.5C 2015.92,399.782 2017.59,408.115 2019,416.5C 2019.5,310.167 2019.67,203.834 2019.5,97.5C 2051.83,97.5 2084.17,97.5 2116.5,97.5C 2116.5,246.167 2116.5,394.833 2116.5,543.5 Z"/></g>
<g><path style="opacity:0.99" fill="#665953" d="M 2231.5,97.5 C 2333.83,97.5 2436.17,97.5 2538.5,97.5C 2538.5,126.833 2538.5,156.167 2538.5,185.5C 2468.83,185.5 2399.17,185.5 2329.5,185.5C 2329.5,223.5 2329.5,261.5 2329.5,299.5C 2391.83,299.5 2454.17,299.5 2516.5,299.5C 2516.5,327.5 2516.5,355.5 2516.5,383.5C 2454.17,383.5 2391.83,383.5 2329.5,383.5C 2329.5,423.167 2329.5,462.833 2329.5,502.5C 2396.83,502.5 2464.17,502.5 2531.5,502.5C 2535.41,531.846 2539.41,561.179 2543.5,590.5C 2439.5,590.5 2335.5,590.5 2231.5,590.5C 2231.5,426.167 2231.5,261.833 2231.5,97.5 Z"/></g>
<g><path style="opacity:0.993" fill="#665953" d="M 2769.5,97.5 C 2803.83,97.5 2838.17,97.5 2872.5,97.5C 2927.17,261.85 2981.84,426.184 3036.5,590.5C 3002.17,590.5 2967.83,590.5 2933.5,590.5C 2920.24,546.391 2906.58,502.391 2892.5,458.5C 2844.93,457.17 2797.43,457.17 2750,458.5C 2735.16,502.35 2720.33,546.183 2705.5,590C 2671.17,590.5 2636.83,590.667 2602.5,590.5C 2657.97,426.104 2713.63,261.771 2769.5,97.5 Z M 2820.5,187.5 C 2822.12,199.671 2823.62,212.004 2825,224.5C 2840.27,275.476 2855.44,326.476 2870.5,377.5C 2837.17,378.5 2803.84,378.833 2770.5,378.5C 2785.69,327.094 2801.19,275.761 2817,224.5C 2818.7,212.214 2819.86,199.881 2820.5,187.5 Z"/></g>
<g><path style="opacity:0.557" fill="#655951" d="M 2116.5,543.5 C 2116.5,556.833 2116.5,570.167 2116.5,583.5C 2115.67,577.001 2115,570.334 2114.5,563.5C 2115,556.666 2115.67,549.999 2116.5,543.5 Z"/></g>
<g><path style="opacity:0.997" fill="#20b8d6" d="M 1249.5,743.5 C 1342.78,741.526 1410.28,781.859 1452,864.5C 1462.08,888.139 1467.74,912.806 1469,938.5C 1469.67,976.833 1469.67,1015.17 1469,1053.5C 1461.97,1134.81 1422.14,1193.64 1349.5,1230C 1308.99,1247.06 1266.99,1252.06 1223.5,1245C 1157.97,1231.79 1109.14,1195.96 1077,1137.5C 1064.21,1112.01 1056.88,1085.01 1055,1056.5C 1054.33,1015.83 1054.33,975.167 1055,934.5C 1063.21,852.194 1104.71,793.694 1179.5,759C 1202.16,750.171 1225.49,745.004 1249.5,743.5 Z M 1254.5,829.5 C 1312.38,830.687 1349.54,859.02 1366,914.5C 1368.09,923.389 1369.43,932.389 1370,941.5C 1370.67,977.5 1370.67,1013.5 1370,1049.5C 1367.38,1091.25 1348.88,1123.75 1314.5,1147C 1278.83,1166.33 1243.17,1166.33 1207.5,1147C 1173.63,1124.74 1155.13,1093.24 1152,1052.5C 1151.33,1014.5 1151.33,976.5 1152,938.5C 1155.59,890.962 1178.76,857.129 1221.5,837C 1232.32,833.043 1243.32,830.543 1254.5,829.5 Z"/></g>
<g><path style="opacity:0.998" fill="#20b8d6" d="M 2170.5,743.5 C 2234.12,741.569 2292.79,757.402 2346.5,791C 2351.47,794.31 2356.14,797.977 2360.5,802C 2345.05,830.393 2329.22,858.56 2313,886.5C 2282.64,850.901 2244.14,830.401 2197.5,825C 2174.9,822.186 2153.9,826.519 2134.5,838C 2116.01,855.784 2109.51,877.284 2115,902.5C 2121.96,919.461 2134.13,930.961 2151.5,937C 2190.39,950.075 2229.06,963.742 2267.5,978C 2290.37,987.098 2311.71,998.765 2331.5,1013C 2365.77,1045.14 2377.93,1084.31 2368,1130.5C 2357.98,1175.85 2331.81,1208.02 2289.5,1227C 2251.82,1243.39 2212.49,1249.39 2171.5,1245C 2121.58,1241.36 2075.25,1226.69 2032.5,1201C 2027,1196.99 2021.67,1192.83 2016.5,1188.5C 2027.64,1157.75 2038.97,1127.08 2050.5,1096.5C 2083.88,1130.86 2124.21,1152.69 2171.5,1162C 2192.62,1164.63 2213.29,1162.63 2233.5,1156C 2257.87,1144.24 2268.7,1124.74 2266,1097.5C 2261.79,1081.58 2252.63,1069.41 2238.5,1061C 2233.17,1058.33 2227.83,1055.67 2222.5,1053C 2179.7,1040.18 2137.7,1025.18 2096.5,1008C 2055.92,990.741 2030.42,960.574 2020,917.5C 2010.5,872.172 2020.17,831.506 2049,795.5C 2071.84,771.323 2099.67,755.823 2132.5,749C 2145.22,746.496 2157.89,744.663 2170.5,743.5 Z"/></g>
<g><path style="opacity:0.997" fill="#20b8d6" d="M 817.5,745.5 C 877.13,741.435 929.797,758.269 975.5,796C 980.833,801.333 986.167,806.667 991.5,812C 969.014,835.652 946.014,858.819 922.5,881.5C 913.283,872.113 903.616,863.28 893.5,855C 866.517,838.337 837.517,833.67 806.5,841C 778.358,850.471 758.525,868.971 747,896.5C 738.306,917.97 733.973,940.303 734,963.5C 732.946,995.211 733.613,1026.88 736,1058.5C 739.217,1086.76 750.384,1111.26 769.5,1132C 792.626,1151.45 819.293,1159.12 849.5,1155C 871.738,1150.38 891.405,1140.71 908.5,1126C 915.685,1119.31 923.018,1112.81 930.5,1106.5C 953.653,1129.15 976.653,1151.99 999.5,1175C 937.17,1238.55 862.504,1260.21 775.5,1240C 737.859,1228.68 707.026,1207.52 683,1176.5C 656.945,1143.03 641.945,1105.03 638,1062.5C 636.441,1026.52 636.108,990.516 637,954.5C 639.318,888.383 664.484,832.883 712.5,788C 742.915,762.582 777.915,748.415 817.5,745.5 Z"/></g>
<g><path style="opacity:0.997" fill="#20b8d6" d="M 2835.5,745.5 C 2895.13,741.435 2947.8,758.269 2993.5,796C 2998.83,801.333 3004.17,806.667 3009.5,812C 2987.01,835.652 2964.01,858.819 2940.5,881.5C 2931.28,872.113 2921.62,863.28 2911.5,855C 2884.52,838.337 2855.52,833.67 2824.5,841C 2796.36,850.471 2776.52,868.971 2765,896.5C 2758.33,912.174 2754.33,928.507 2753,945.5C 2752.06,983.191 2752.39,1020.86 2754,1058.5C 2757,1085.49 2767.33,1109.16 2785,1129.5C 2808.36,1150.84 2835.86,1159.34 2867.5,1155C 2889.74,1150.38 2909.4,1140.71 2926.5,1126C 2933.68,1119.31 2941.02,1112.81 2948.5,1106.5C 2971.65,1129.15 2994.65,1151.99 3017.5,1175C 2955.17,1238.55 2880.5,1260.21 2793.5,1240C 2752.52,1227.35 2719.68,1203.51 2695,1168.5C 2672.73,1136.7 2659.73,1101.37 2656,1062.5C 2654.45,1026.52 2654.12,990.516 2655,954.5C 2657.32,888.379 2682.49,832.879 2730.5,788C 2760.91,762.582 2795.91,748.415 2835.5,745.5 Z"/></g>
<g><path style="opacity:0.996" fill="#21b8d6" d="M 1571.5,748.5 C 1638.17,748.333 1704.83,748.5 1771.5,749C 1839.98,753.161 1887.81,786.661 1915,849.5C 1929.85,890.395 1930.19,931.395 1916,972.5C 1904.53,1000.64 1886.36,1023.48 1861.5,1041C 1851.5,1047 1841.5,1053 1831.5,1059C 1837.23,1063.94 1842.39,1069.44 1847,1075.5C 1855.84,1089.84 1864.17,1104.51 1872,1119.5C 1878.04,1130.87 1886.21,1140.37 1896.5,1148C 1907.98,1154.1 1919.98,1155.6 1932.5,1152.5C 1932.5,1182.17 1932.5,1211.83 1932.5,1241.5C 1895.27,1255.3 1861.6,1249.46 1831.5,1224C 1818.78,1212.29 1807.94,1199.12 1799,1184.5C 1787.37,1163.52 1775.7,1142.52 1764,1121.5C 1754.64,1105.14 1742.14,1091.64 1726.5,1081C 1722.64,1079.27 1718.64,1077.93 1714.5,1077C 1699.17,1076.5 1683.84,1076.33 1668.5,1076.5C 1668.5,1131.5 1668.5,1186.5 1668.5,1241.5C 1636.17,1241.5 1603.83,1241.5 1571.5,1241.5C 1571.5,1077.17 1571.5,912.833 1571.5,748.5 Z M 1668.5,837.5 C 1701.83,837.333 1735.17,837.5 1768.5,838C 1799.62,845.118 1818.78,864.285 1826,895.5C 1832.84,935.731 1818.34,965.231 1782.5,984C 1776.37,986.449 1770.04,988.116 1763.5,989C 1731.84,989.5 1700.17,989.667 1668.5,989.5C 1668.5,938.833 1668.5,888.167 1668.5,837.5 Z"/></g>
<g><path style="opacity:0.994" fill="#21b8d6" d="M 2458.5,748.5 C 2491.17,748.5 2523.83,748.5 2556.5,748.5C 2556.5,912.833 2556.5,1077.17 2556.5,1241.5C 2523.83,1241.5 2491.17,1241.5 2458.5,1241.5C 2458.5,1077.17 2458.5,912.833 2458.5,748.5 Z"/></g>
<g><path style="opacity:0.997" fill="#20b8d6" d="M 3402.5,1031.5 C 3400.75,1031.42 3399.75,1032.25 3399.5,1034C 3400.36,1035.97 3401.36,1037.97 3402.5,1040C 3401.61,1041.22 3400.61,1042.55 3399.5,1044C 3400.85,1044.77 3401.68,1045.94 3402,1047.5C 3402.43,1044.51 3403.59,1044.01 3405.5,1046C 3403.4,1046.56 3403.24,1047.06 3405,1047.5C 3406.03,1047.16 3406.53,1046.5 3406.5,1045.5C 3428.86,1110.25 3450.86,1175.25 3472.5,1240.5C 3438.17,1241.67 3403.84,1241.83 3369.5,1241C 3355.94,1197.49 3342.28,1153.99 3328.5,1110.5C 3280.83,1109.17 3233.17,1109.17 3185.5,1110.5C 3171.03,1153.91 3156.36,1197.24 3141.5,1240.5C 3107.17,1241.5 3072.84,1241.83 3038.5,1241.5C 3093.47,1077.09 3149.14,912.925 3205.5,749C 3239.5,748.167 3273.5,748.333 3307.5,749.5C 3339.18,843.528 3370.84,937.528 3402.5,1031.5 Z M 3256.5,842.5 C 3257.87,855.102 3259.7,867.768 3262,880.5C 3276.64,930.087 3291.47,979.587 3306.5,1029C 3272.83,1029.67 3239.17,1029.67 3205.5,1029C 3221.73,977.648 3237.56,926.148 3253,874.5C 3254.1,863.811 3255.27,853.145 3256.5,842.5 Z"/></g>
<g><path style="opacity:1" fill="#20b8d5" d="M 3402.5,1031.5 C 3404.04,1036.11 3405.37,1040.78 3406.5,1045.5C 3406.53,1046.5 3406.03,1047.16 3405,1047.5C 3403.24,1047.06 3403.4,1046.56 3405.5,1046C 3403.59,1044.01 3402.43,1044.51 3402,1047.5C 3401.68,1045.94 3400.85,1044.77 3399.5,1044C 3400.61,1042.55 3401.61,1041.22 3402.5,1040C 3401.36,1037.97 3400.36,1035.97 3399.5,1034C 3399.75,1032.25 3400.75,1031.42 3402.5,1031.5 Z"/></g>
<g><path style="opacity:0.997" fill="#665953" d="M 2040.5,1484.5 C 2093.03,1482.64 2143.36,1492.14 2191.5,1513C 2272.67,1551.83 2304.5,1615.66 2287,1704.5C 2271.47,1786.61 2230.63,1852.78 2164.5,1903C 2156.5,1907.67 2148.5,1912.33 2140.5,1917C 2112.38,1928.55 2086.72,1943.88 2063.5,1963C 2057.53,1964.95 2051.53,1964.95 2045.5,1963C 2021.61,1943.54 1995.28,1927.88 1966.5,1916C 1941.46,1902.31 1919.29,1884.81 1900,1863.5C 1841.24,1797.89 1814.24,1720.89 1819,1632.5C 1826.41,1593.15 1845.91,1561.32 1877.5,1537C 1913.82,1511.35 1954.16,1495.35 1998.5,1489C 2012.6,1487.02 2026.6,1485.52 2040.5,1484.5 Z"/></g>
<g><path style="opacity:0.996" fill="#665953" d="M 1782.5,1578.5 C 1794.17,1578.33 1805.84,1578.5 1817.5,1579C 1802.01,1609.76 1796.18,1642.26 1800,1676.5C 1805.41,1745.28 1830.08,1805.95 1874,1858.5C 1882.67,1868.5 1891.33,1878.5 1900,1888.5C 1907.23,1896.4 1915.07,1903.57 1923.5,1910C 1939.37,1920.43 1955.37,1930.6 1971.5,1940.5C 1952.39,1966.44 1930.06,1989.28 1904.5,2009C 1880.1,2026.54 1854.1,2041.54 1826.5,2054C 1817.67,2058.31 1808.67,2058.98 1799.5,2056C 1797.5,2054.67 1795.5,2053.33 1793.5,2052C 1780.47,2039.3 1767.13,2026.97 1753.5,2015C 1727.5,1999.33 1701.5,1983.67 1675.5,1968C 1635.96,1939.12 1607.79,1901.62 1591,1855.5C 1539.05,1707.56 1589.55,1617.06 1742.5,1584C 1755.94,1581.82 1769.27,1579.99 1782.5,1578.5 Z"/></g>
<g><path style="opacity:0.996" fill="#665953" d="M 2291.5,1579.5 C 2346.91,1576.28 2399.58,1587.12 2449.5,1612C 2524.81,1654.17 2552.65,1717.67 2533,1802.5C 2523.57,1857.52 2499.74,1905.02 2461.5,1945C 2453.35,1952.24 2445.02,1959.24 2436.5,1966C 2410.83,1982.17 2384.83,1997.84 2358.5,2013C 2354.35,2016.58 2350.01,2019.91 2345.5,2023C 2335.47,2033.36 2325.14,2043.36 2314.5,2053C 2305.33,2059.65 2295.66,2060.32 2285.5,2055C 2241.83,2036.26 2203,2010.43 2169,1977.5C 2158.03,1965.54 2147.53,1953.21 2137.5,1940.5C 2157.42,1929.41 2176.42,1916.91 2194.5,1903C 2227.69,1871.4 2255.19,1835.57 2277,1795.5C 2301.51,1744.93 2312.18,1691.59 2309,1635.5C 2306.85,1615.56 2301.02,1596.9 2291.5,1579.5 Z"/></g>
<g><path style="opacity:0.993" fill="#665953" d="M 2551.5,1705.5 C 2605.61,1734.48 2636.61,1779.64 2644.5,1841C 2649.12,1891.13 2635.62,1935.63 2604,1974.5C 2594.86,1984.64 2585.36,1994.47 2575.5,2004C 2550.93,2023.02 2531.43,2046.19 2517,2073.5C 2513.04,2079.46 2507.88,2083.96 2501.5,2087C 2490.95,2087.86 2480.95,2085.86 2471.5,2081C 2440.6,2065.23 2410.6,2048.07 2381.5,2029.5C 2385.33,2025.84 2389.33,2022.34 2393.5,2019C 2418.73,2004.89 2442.4,1988.55 2464.5,1970C 2497.21,1939.43 2521.05,1902.93 2536,1860.5C 2551.01,1819.47 2557.67,1777.13 2556,1733.5C 2555.01,1724.07 2553.51,1714.74 2551.5,1705.5 Z"/></g>
<g><path style="opacity:0.993" fill="#665953" d="M 1556.5,1705.5 C 1545.85,1790.08 1565.02,1867.41 1614,1937.5C 1630.65,1958.16 1649.82,1975.99 1671.5,1991C 1687.34,2000.75 1703,2010.75 1718.5,2021C 1721.92,2023.38 1724.92,2026.21 1727.5,2029.5C 1702.51,2045.63 1676.84,2060.79 1650.5,2075C 1640.94,2080.11 1630.94,2084.11 1620.5,2087C 1613.71,2088.33 1607.38,2087.33 1601.5,2084C 1592.06,2073.63 1584.23,2062.13 1578,2049.5C 1574.42,2045.35 1571.09,2041.01 1568,2036.5C 1549.67,2018.83 1531.33,2001.17 1513,1983.5C 1462.17,1925.18 1450.83,1859.84 1479,1787.5C 1495.47,1751.2 1521.3,1723.87 1556.5,1705.5 Z"/></g>
<g><path style="opacity:0.996" fill="#665953" d="M 1990.5,1948.5 C 2000.11,1954.31 2009.78,1960.14 2019.5,1966C 2028.54,1974.04 2037.88,1981.71 2047.5,1989C 2053.97,1992.7 2059.97,1992.03 2065.5,1987C 2081.35,1971.65 2099.01,1958.82 2118.5,1948.5C 2135.87,1970.38 2154.87,1990.88 2175.5,2010C 2197.49,2027.33 2220.49,2043.16 2244.5,2057.5C 2221.07,2105.48 2189.07,2146.98 2148.5,2182C 2131.99,2194.42 2115.65,2207.09 2099.5,2220C 2089.86,2230.64 2079.86,2240.97 2069.5,2251C 2062.53,2257 2054.87,2258.33 2046.5,2255C 2042.22,2252.38 2038.22,2249.38 2034.5,2246C 2024.53,2235.03 2014.2,2224.36 2003.5,2214C 1962.82,2186.32 1927.65,2152.82 1898,2113.5C 1885.52,2096.05 1874.69,2077.55 1865.5,2058C 1865.76,2056.74 1866.43,2055.74 1867.5,2055C 1903.73,2035.61 1935.89,2010.78 1964,1980.5C 1973.08,1969.99 1981.91,1959.32 1990.5,1948.5 Z"/></g>
<g><path style="opacity:0.993" fill="#665953" d="M 1518.5,2017.5 C 1547.52,2038.03 1569.02,2064.69 1583,2097.5C 1597.45,2130.41 1612.45,2163.07 1628,2195.5C 1640.62,2220.47 1657.46,2242.3 1678.5,2261C 1699.43,2277.77 1720.76,2293.94 1742.5,2309.5C 1717.54,2327.61 1691.87,2344.78 1665.5,2361C 1658.62,2364.61 1651.62,2367.94 1644.5,2371C 1634.99,2374.49 1626.82,2372.65 1620,2365.5C 1611.09,2348.67 1601.42,2332.34 1591,2316.5C 1576.74,2299.57 1561.74,2283.23 1546,2267.5C 1495.87,2207.21 1480.54,2138.88 1500,2062.5C 1504.52,2046.79 1510.69,2031.79 1518.5,2017.5 Z"/></g>
<g><path style="opacity:0.993" fill="#665953" d="M 2588.5,2017.5 C 2589.5,2017.41 2590.33,2017.75 2591,2018.5C 2621.34,2076.93 2625.67,2137.26 2604,2199.5C 2592.8,2228 2576.8,2253.33 2556,2275.5C 2537.04,2292.78 2520.7,2312.11 2507,2333.5C 2502.1,2344.31 2496.43,2354.65 2490,2364.5C 2484.64,2371.95 2477.47,2374.45 2468.5,2372C 2452.32,2365.58 2436.98,2357.58 2422.5,2348C 2403.66,2335.41 2384.99,2322.58 2366.5,2309.5C 2387.82,2294.16 2408.82,2278.33 2429.5,2262C 2449.4,2244.77 2465.57,2224.6 2478,2201.5C 2493.15,2170.86 2507.49,2139.86 2521,2108.5C 2528.16,2093.52 2535.82,2078.85 2544,2064.5C 2548.76,2057.98 2553.76,2051.65 2559,2045.5C 2569.03,2036.3 2578.86,2026.97 2588.5,2017.5 Z"/></g>
<g><path style="opacity:0.995" fill="#665953" d="M 2360.5,2041.5 C 2392.16,2060.94 2424.49,2079.44 2457.5,2097C 2464.75,2100.2 2472.09,2103.2 2479.5,2106C 2485.68,2108 2492.01,2108.83 2498.5,2108.5C 2484.05,2158.07 2460.22,2202.41 2427,2241.5C 2418.42,2250.08 2409.26,2257.92 2399.5,2265C 2377.67,2278.08 2356,2291.42 2334.5,2305C 2323.17,2315.67 2311.83,2326.33 2300.5,2337C 2291.93,2341.42 2283.27,2341.42 2274.5,2337C 2218.74,2308.59 2172.08,2269.25 2134.5,2219C 2189.04,2178.3 2231.37,2127.46 2261.5,2066.5C 2273.66,2073.44 2286.66,2077.78 2300.5,2079.5C 2314.6,2078.28 2327.27,2073.44 2338.5,2065C 2345.73,2056.94 2353.06,2049.11 2360.5,2041.5 Z"/></g>
<g><path style="opacity:0.995" fill="#665953" d="M 1747.5,2041.5 C 1748.24,2041.37 1748.91,2041.54 1749.5,2042C 1757.47,2050.97 1765.8,2059.64 1774.5,2068C 1791.7,2079.71 1810.03,2082.04 1829.5,2075C 1835.62,2072.44 1841.62,2069.61 1847.5,2066.5C 1877.57,2127.41 1919.9,2178.25 1974.5,2219C 1936.92,2269.25 1890.26,2308.59 1834.5,2337C 1825.79,2341.54 1817.12,2341.54 1808.5,2337C 1796.83,2326 1785.17,2315 1773.5,2304C 1752,2290.42 1730.33,2277.08 1708.5,2264C 1693.37,2252.54 1679.87,2239.37 1668,2224.5C 1642.21,2189.26 1623.05,2150.59 1610.5,2108.5C 1623.58,2108.31 1635.91,2105.14 1647.5,2099C 1681.71,2081.07 1715.05,2061.9 1747.5,2041.5 Z"/></g>
<g><path style="opacity:0.994" fill="#665953" d="M 1989.5,2229.5 C 1995.29,2233.45 2000.96,2237.62 2006.5,2242C 2017.53,2252.7 2028.2,2263.7 2038.5,2275C 2043.23,2279.28 2048.73,2282.11 2055,2283.5C 2065.26,2279.93 2073.92,2273.93 2081,2265.5C 2092.39,2251.77 2105.39,2239.77 2120,2229.5C 2136.5,2251.93 2155,2272.77 2175.5,2292C 2186.86,2301.03 2197.86,2310.36 2208.5,2320C 2186.33,2372.84 2151.66,2415.5 2104.5,2448C 2093.14,2459.03 2082.14,2470.36 2071.5,2482C 2061.11,2491.56 2050.44,2491.9 2039.5,2483C 2028.47,2472.3 2017.8,2461.3 2007.5,2450C 1959.65,2416.82 1924.32,2373.49 1901.5,2320C 1922.17,2303.01 1942,2284.84 1961,2265.5C 1971.09,2253.91 1980.59,2241.91 1989.5,2229.5 Z"/></g>
<g><path style="opacity:0.994" fill="#665953" d="M 1759.5,2321.5 C 1762.14,2321.95 1764.47,2323.12 1766.5,2325C 1776.28,2337.12 1787.62,2347.46 1800.5,2356C 1812.47,2362.55 1824.8,2363.22 1837.5,2358C 1852.78,2350.69 1867.45,2342.36 1881.5,2333C 1882.76,2332.02 1884.09,2331.68 1885.5,2332C 1907.61,2383.77 1941.27,2426.44 1986.5,2460C 1988.01,2460.84 1988.51,2462 1988,2463.5C 1957.43,2503.68 1919.26,2534.18 1873.5,2555C 1867.44,2555.54 1861.77,2554.21 1856.5,2551C 1844.87,2541.71 1833.54,2532.04 1822.5,2522C 1774.7,2495.2 1739.87,2456.7 1718,2406.5C 1712.03,2391.93 1706.87,2377.1 1702.5,2362C 1721.57,2348.48 1740.57,2334.98 1759.5,2321.5 Z"/></g>
<g><path style="opacity:0.994" fill="#665953" d="M 2346.5,2321.5 C 2348.31,2321.49 2349.98,2321.99 2351.5,2323C 2369.85,2336.03 2388.19,2349.03 2406.5,2362C 2388.88,2432.97 2348.55,2486.64 2285.5,2523C 2275.06,2533.05 2264.06,2542.38 2252.5,2551C 2247.29,2554.39 2241.62,2555.72 2235.5,2555C 2189.34,2533.74 2151,2502.74 2120.5,2462C 2166.49,2427.51 2201.15,2384.01 2224.5,2331.5C 2239.52,2341.35 2255.19,2350.18 2271.5,2358C 2284.22,2363.27 2296.55,2362.6 2308.5,2356C 2312.5,2353.33 2316.5,2350.67 2320.5,2348C 2329.31,2339.35 2337.98,2330.52 2346.5,2321.5 Z"/></g>
<g><path style="opacity:0.99" fill="#665953" d="M 1684.5,2372.5 C 1685.5,2372.5 1686.5,2372.5 1687.5,2372.5C 1699.05,2419.45 1721.38,2460.28 1754.5,2495C 1769.99,2508.89 1785.99,2522.06 1802.5,2534.5C 1781.06,2550.73 1758.39,2565.23 1734.5,2578C 1725.65,2582.58 1718.15,2581.08 1712,2573.5C 1705.59,2559.68 1697.93,2546.68 1689,2534.5C 1677.03,2520.87 1664.7,2507.53 1652,2494.5C 1628.47,2465.58 1615.64,2432.42 1613.5,2395C 1613.83,2392.5 1614.17,2390 1614.5,2387.5C 1622.65,2393.16 1631.65,2395 1641.5,2393C 1656.95,2388.27 1671.28,2381.44 1684.5,2372.5 Z"/></g>
<g><path style="opacity:0.99" fill="#665953" d="M 2422.5,2372.5 C 2432.25,2377.88 2442.25,2383.04 2452.5,2388C 2462.29,2393.01 2472.63,2394.67 2483.5,2393C 2487.45,2391.69 2491.11,2389.86 2494.5,2387.5C 2495.23,2430.82 2481.06,2468.48 2452,2500.5C 2440.3,2512.53 2428.97,2524.87 2418,2537.5C 2410.08,2550.34 2402.41,2563.34 2395,2576.5C 2390.91,2580.3 2386.08,2581.47 2380.5,2580C 2370.61,2576.39 2361.28,2571.72 2352.5,2566C 2336.73,2556.05 2321.4,2545.55 2306.5,2534.5C 2326.99,2519.85 2346.16,2503.52 2364,2485.5C 2391.49,2452.12 2410.99,2414.45 2422.5,2372.5 Z"/></g>
<g><path style="opacity:0.993" fill="#665953" d="M 2003.5,2473.5 C 2004.92,2473.71 2006.26,2474.21 2007.5,2475C 2018.17,2486 2028.83,2497 2039.5,2508C 2043.81,2512.24 2048.98,2514.74 2055,2515.5C 2061.25,2514.12 2066.75,2511.29 2071.5,2507C 2082.01,2495.15 2093.18,2483.99 2105,2473.5C 2126.86,2501.36 2152.03,2525.86 2180.5,2547C 2160.47,2581.69 2134.14,2610.69 2101.5,2634C 2091.53,2644.97 2081.2,2655.64 2070.5,2666C 2060.17,2674.67 2049.83,2674.67 2039.5,2666C 2029.14,2655.97 2019.14,2645.64 2009.5,2635C 1976.53,2611.36 1949.86,2582.03 1929.5,2547C 1958,2526.33 1982.67,2501.83 2003.5,2473.5 Z"/></g>
<g><path style="opacity:0.993" fill="#665953" d="M 1817.5,2549.5 C 1820.02,2549.76 1822.35,2550.59 1824.5,2552C 1834.04,2562.87 1845.71,2570.54 1859.5,2575C 1869.19,2577.43 1878.52,2576.43 1887.5,2572C 1896.24,2567.55 1904.74,2562.71 1913,2557.5C 1933.25,2592.93 1959.75,2622.93 1992.5,2647.5C 1993.52,2648 1993.69,2648.67 1993,2649.5C 1966.82,2684.02 1934.32,2710.85 1895.5,2730C 1890.47,2731.94 1885.47,2731.94 1880.5,2730C 1872.19,2721.36 1863.52,2713.02 1854.5,2705C 1840.84,2695.83 1826.84,2687.17 1812.5,2679C 1795.95,2668.12 1782.45,2654.29 1772,2637.5C 1763.89,2624.28 1756.56,2610.61 1750,2596.5C 1749.22,2595.06 1749.39,2593.72 1750.5,2592.5C 1773.68,2579.29 1796.01,2564.96 1817.5,2549.5 Z"/></g>
<g><path style="opacity:0.992" fill="#665953" d="M 2288.5,2549.5 C 2291.02,2549.76 2293.35,2550.59 2295.5,2552C 2316.66,2566.75 2338.32,2580.75 2360.5,2594C 2350.82,2616.65 2338.32,2637.48 2323,2656.5C 2316.64,2663.25 2309.81,2669.42 2302.5,2675C 2286,2685.08 2269.66,2695.42 2253.5,2706C 2245.52,2714.31 2237.19,2722.31 2228.5,2730C 2223.53,2731.94 2218.53,2731.94 2213.5,2730C 2174.7,2710.58 2142.03,2683.58 2115.5,2649C 2148.43,2623.75 2175.26,2593.25 2196,2557.5C 2205.8,2563.65 2215.97,2569.15 2226.5,2574C 2236.29,2577.46 2245.95,2577.12 2255.5,2573C 2259.5,2571 2263.5,2569 2267.5,2567C 2274.11,2560.55 2281.11,2554.72 2288.5,2549.5 Z"/></g>
<g><path style="opacity:0.993" fill="#665953" d="M 2004.5,2663.5 C 2014.28,2673.11 2024.28,2682.61 2034.5,2692C 2048.76,2702.2 2062.76,2701.87 2076.5,2691C 2085.64,2681.52 2095.14,2672.36 2105,2663.5C 2126.25,2692.08 2151.41,2716.58 2180.5,2737C 2161.54,2771.54 2135.87,2800.21 2103.5,2823C 2093.14,2833.03 2083.14,2843.36 2073.5,2854C 2069,2857.83 2064,2860.83 2058.5,2863C 2052.69,2863.73 2047.36,2862.4 2042.5,2859C 2030.29,2847.28 2018.29,2835.28 2006.5,2823C 1974.27,2800.28 1948.6,2771.78 1929.5,2737.5C 1958.48,2716.85 1983.48,2692.19 2004.5,2663.5 Z"/></g>
</svg>
